HIERARCHY
ROOT Hips
{
	OFFSET 0.000000 0.000000 0.000000 
	CHANNELS 6 Xposition Yposition Zposition Yrotation Zrotation Xrotation 
	JOINT Lumbar
	{
		OFFSET 0.000000 0.000000 0.000000 
		CHANNELS 3 Zrotation Xrotation Yrotation
		JOINT Neck
		{
			OFFSET 0.000000 0.445665 0.000000 
			CHANNELS 3 Zrotation Xrotation Yrotation
			End Site
			{
				OFFSET 0.000000 0.227535 0.000000 
			}
		}
		JOINT RightShoulder
		{
			OFFSET 0.019635 0.377685 0.194865 
			CHANNELS 3 Zrotation Xrotation Yrotation
			JOINT RightElbow
			{
				OFFSET 0.000000 -0.243375 0.000000 
				CHANNELS 2 Zrotation Yrotation
				JOINT RightWrist
				{
					OFFSET 0.000000 -0.264825 0.000000 
					CHANNELS 2 Zrotation Xrotation
					End Site
					{
						OFFSET 0.006600 -0.176220 0.000990 
					}
				}
			}
		}
		JOINT LeftShoulder
		{
			OFFSET 0.019635 0.377685 -0.194865 
			CHANNELS 3 Zrotation Xrotation Yrotation
			JOINT LeftElbow
			{
				OFFSET 0.000000 -0.243375 0.000000 
				CHANNELS 2 Zrotation Yrotation
				JOINT LeftWrist
				{
					OFFSET 0.000000 -0.264825 0.000000 
					CHANNELS 2 Zrotation Xrotation
					End Site
					{
						OFFSET 0.006600 -0.176220 -0.000990 
					}
				}
			}
		}
	}
	JOINT RightHip
	{
		OFFSET 0.052140 -0.069960 0.075570 
		CHANNELS 3 Zrotation Xrotation Yrotation
		JOINT RightKnee
		{
			OFFSET 0.000000 -0.402270 0.000000 
			CHANNELS 1 Zrotation
			JOINT RightAnkle
			{
				OFFSET 0.000000 -0.404085 0.000000 
				CHANNELS 3 Zrotation Xrotation Yrotation
				End Site
				{
					OFFSET 0.204105 -0.089430 0.008415 
				}
			}
		}
	}
	JOINT LeftHip
	{
		OFFSET 0.052140 -0.069960 -0.075570 
		CHANNELS 3 Zrotation Xrotation Yrotation
		JOINT LeftKnee
		{
			OFFSET 0.000000 -0.402270 0.000000 
			CHANNELS 1 Zrotation
			JOINT LeftAnkle
			{
				OFFSET 0.000000 -0.404085 0.000000 
				CHANNELS 3 Zrotation Xrotation Yrotation
				End Site
				{
					OFFSET 0.204105 -0.089430 -0.008415 
				}
			}
		}
	}
}
MOTION
Frames: 21
Frame Time: 0.02
-0.07462 -0.02445 -0.21918 -161.84774 -30.39426 -6.36077 41.05953 7.16909 0.19965 -10.07606 -7.40106 -0.83079 -58.34687 -60.61294 49.68982 114.47773 106.47556 -40.95935 -6.32311 -29.65278 71.32849 87.094 105.70954 -45.31831 -43.76416 -0.24818 34.12354 8.45738 -17.06506 -20.5359 -6.44084 -1.54704 -1.38941 47.21723 13.14624 1.52177 -42.83886 -6.63595 3.31509 2.37451
-0.0741 -0.02484 -0.21917 -161.90027 -30.39618 -6.45603 40.97324 7.31199 0.35552 -10.72967 -7.31185 -0.83079 -58.94069 -59.82243 49.35846 114.28839 107.71233 -43.13116 -6.36608 -28.05213 69.0973 87.82785 106.62184 -47.15473 -41.13494 -0.22075 34.18089 8.49486 -17.2516 -20.62744 -6.44168 -1.52034 -1.37494 47.32917 13.21911 1.47222 -42.99445 -6.62748 3.33101 2.38117
-0.07355 -0.02522 -0.21905 -161.867 -30.34141 -6.54288 40.87339 7.48245 0.45618 -11.42403 -7.34384 -0.83079 -59.96734 -59.14482 48.35449 114.27199 110.1221 -45.86589 -6.54092 -21.54118 66.74025 84.00745 107.32698 -50.06445 -37.41818 -0.13166 34.17691 8.52188 -17.46289 -20.71729 -6.441 -1.49546 -1.36178 47.39531 13.29223 1.44041 -43.1486 -6.61971 3.33668 2.38242
-0.07301 -0.02559 -0.21898 -161.8612 -30.31318 -6.62954 40.77725 7.63329 0.57973 -12.07562 -7.32976 -0.83079 -60.73345 -58.45623 47.72292 114.17731 111.84487 -48.18727 -6.64377 -17.56016 64.52137 82.39885 108.11532 -52.38968 -34.32839 -0.07244 34.20158 8.55238 -17.65864 -20.80514 -6.44147 -1.47171 -1.34934 47.48194 13.36295 1.40261 -43.29686 -6.61183 3.34533 2.38513
-0.07249 -0.02603 -0.21887 -161.90405 -30.28116 -6.73405 40.69059 7.81393 0.71181 -12.83062 -7.27593 -0.83079 -61.74259 -57.59466 46.84606 114.07377 114.15667 -51.14903 -6.79062 -12.40919 61.92632 80.28838 108.94968 -55.10508 -30.69672 -0.00645 34.22265 8.58865 -17.87583 -20.90553 -6.44922 -1.44017 -1.3322 47.57002 13.44452 1.35588 -43.47374 -6.60288 3.36115 2.39199
-0.07193 -0.02632 -0.21884 -161.82485 -30.24411 -6.79918 40.58194 7.93948 0.81293 -13.37944 -7.33431 -0.83079 -62.3621 -57.11899 46.30136 114.03296 115.55087 -52.92631 -6.88047 -8.47834 60.09554 78.08817 109.64343 -57.27279 -27.92154 0.06027 34.23735 8.61033 -18.05223 -20.97934 -6.4297 -1.42467 -1.32406 47.64478 13.50276 1.3313 -43.59058 -6.59641 3.35963 2.389
-0.07128 -0.02616 -0.21905 -161.43409 -30.20256 -6.75561 40.40766 7.90161 0.84667 -13.35013 -7.67308 -0.83079 -61.7562 -57.70877 46.89953 114.11896 114.03713 -51.22044 -6.77264 -9.31804 60.4359 76.95288 109.94662 -57.62241 -27.86585 0.11634 34.24199 8.59336 -18.11936 -20.97684 -6.44416 -1.45889 -1.35083 47.68599 13.50052 1.37288 -43.53834 -6.59636 3.31206 2.35949
-0.0706 -0.02584 -0.21933 -160.92307 -30.15867 -6.6729 40.21308 7.80818 0.85052 -13.11192 -8.12054 -0.83079 -60.75538 -58.67805 47.83871 114.26362 111.58592 -48.3213 -6.60554 -11.50915 61.54791 75.83938 110.12536 -57.39078 -28.69444 0.17053 34.24352 8.56205 -18.14278 -20.94808 -6.4163 -1.50842 -1.38518 47.71653 13.47386 1.43461 -43.42617 -6.59885 3.24753 2.32038
-0.06992 -0.0256 -0.21956 -160.46372 -30.11893 -6.60931 40.03343 7.74315 0.86517 -12.96803 -8.51871 -0.83079 -59.96614 -59.45714 48.57828 114.38553 109.62502 -46.01778 -6.4714 -12.93826 62.29436 74.57014 110.39427 -57.45961 -29.05518 0.22444 34.25157 8.538 -18.17928 -20.93343 -6.3296 -1.54671 -1.40862 47.75737 13.45569 1.4811 -43.34368 -6.60033 3.19112 2.28607
-0.06927 -0.02534 -0.21986 -160.01236 -30.06454 -6.53993 39.82999 7.6658 0.88948 -12.82679 -8.92174 -0.83079 -59.05272 -60.3174 49.48636 114.49808 107.42144 -43.50135 -6.31524 -14.81517 63.105 73.7454 110.51131 -57.42528 -29.64527 0.28613 34.23662 8.51099 -18.24408 -20.90973 -6.55039 -1.60187 -1.46158 47.77452 13.44879 1.5537 -43.25105 -6.6012 3.13247 2.24968
-0.06856 -0.02509 -0.22005 -159.51896 -30.04038 -6.47325 39.67048 7.60056 0.88748 -12.63164 -9.33752 -0.83079 -58.30276 -61.09411 50.12936 114.64029 105.49982 -41.1466 -6.1905 -16.15197 63.95889 72.07633 110.92133 -57.43764 -29.99619 0.3293 34.26874 8.48623 -18.24081 -20.89844 -6.14836 -1.62711 -1.45742 47.83793 13.41235 1.5767 -43.16509 -6.60396 3.0748 2.2155
-0.06769 -0.02492 -0.21996 -158.92214 -30.10492 -6.42506 39.64606 7.58223 0.81945 -12.32378 -9.77287 -0.83079 -58.06319 -61.57419 49.99272 114.86258 104.45769 -39.45187 -6.15482 -15.62138 64.81429 67.94375 112.13938 -57.85855 -29.34987 0.331 34.43991 8.47659 -18.04588 -20.92969 -3.79442 -1.55163 -1.27089 48.04172 13.30284 1.45726 -43.11383 -6.61118 3.02206 2.18889
-0.06676 -0.02478 -0.21977 -158.29093 -30.19959 -6.38062 39.66523 7.57789 0.72694 -11.97185 -10.2144 -0.83079 -58.00589 -61.95169 49.57568 115.10948 103.74746 -37.97261 -6.15412 -14.53535 65.67358 63.00974 113.66193 -58.31788 -28.459 0.31234 34.65751 8.46871 -17.78625 -20.97394 -0.85696 -1.44789 -1.03049 48.29085 13.16422 1.28815 -43.0709 -6.62026 2.9712 2.16497
-0.06586 -0.02463 -0.21962 -157.68663 -30.27745 -6.33366 39.65842 7.5671 0.64562 -11.6492 -10.64569 -0.83079 -57.8887 -62.35768 49.26492 115.33607 102.96688 -36.4437 -6.14516 -13.75562 66.48602 58.54503 115.06868 -58.66111 -27.76614 0.29635 34.84843 8.45659 -17.56591 -21.01111 1.64997 -1.36683 -0.83011 48.51274 13.03696 1.1409 -43.0233 -6.62857 2.92091 2.14048
-0.06496 -0.02448 -0.21951 -157.02961 -30.3675 -6.28913 39.67589 7.5548 0.56055 -11.27861 -11.11335 -0.83079 -57.66435 -62.85269 49.04867 115.60344 101.82465 -34.67088 -6.10328 -12.78504 67.51775 53.62339 116.38195 -59.39136 -26.74186 0.30717 35.06191 8.45866 -17.30344 -21.05253 4.84224 -1.24588 -0.56587 48.76189 12.91572 0.9936 -42.97796 -6.63659 2.86441 2.11311
-0.06405 -0.02432 -0.21929 -156.47688 -30.4404 -6.24051 39.6547 7.54966 0.48089 -11.00216 -11.50385 -0.83079 -57.70753 -63.13399 48.57248 115.79079 101.51387 -33.47128 -6.13739 -12.07236 68.08096 49.47741 117.95593 -59.34439 -26.33191 0.25852 35.24055 8.43159 -17.11249 -21.08823 6.76288 -1.1997 -0.4199 48.96562 12.77661 0.83909 -42.92992 -6.64567 2.82102 2.09224
-0.06312 -0.02419 -0.21881 -156.21184 -30.44959 -6.18363 39.50491 7.56136 0.39622 -10.97997 -11.69147 -0.83079 -58.47964 -62.84018 47.38024 115.75182 103.52657 -33.81814 -6.38666 -12.12914 67.36848 47.55614 120.24442 -57.03697 -27.73136 0.04035 35.30238 8.32561 -17.14748 -21.10767 4.87452 -1.3793 -0.62976 49.029 12.58422 0.63462 -42.87919 -6.6568 2.8177 2.09089
-0.0622 -0.02406 -0.21823 -156.05487 -30.44206 -6.12205 39.31668 7.57994 0.32248 -11.05813 -11.79855 -0.83079 -59.50907 -62.33545 45.94801 115.63103 106.34631 -34.73612 -6.70865 -12.47287 66.17714 46.464 122.7723 -53.96859 -29.74284 -0.23504 35.32921 8.19006 -17.25455 -21.12052 1.71424 -1.63284 -0.95757 49.04589 12.3768 0.43145 -42.8245 -6.66901 2.82686 2.09565
-0.06128 -0.02391 -0.2177 -155.85515 -30.4482 -6.06014 39.15379 7.59537 0.2614 -11.10227 -11.93418 -0.83079 -60.4012 -61.93115 44.66646 115.54695 108.73307 -35.38946 -6.98886 -12.73068 65.18841 45.06781 125.14618 -51.32004 -31.43542 -0.47749 35.37823 8.06669 -17.32054 -21.1347 -0.76149 -1.8442 -1.2207 49.08663 12.18397 0.25639 -42.76743 -6.68099 2.82748 2.09612
-0.06034 -0.02383 -0.21716 -155.62861 -30.43016 -6.00846 38.96011 7.61145 0.1266 -11.09599 -12.10377 -0.83079 -61.38981 -61.50153 43.1951 115.46577 111.42081 -36.07611 -7.30816 -12.7828 64.26279 43.33928 127.72233 -48.35945 -33.29379 -0.74996 35.40263 7.94826 -17.41931 -21.15629 -3.66353 -2.09037 -1.52832 49.11741 11.95838 -0.03776 -42.72818 -6.6919 2.83997 2.1029
-0.05945 -0.02362 -0.2166 -155.48241 -30.45763 -5.9347 38.81968 7.62749 0.14632 -11.21894 -12.18383 -0.83079 -62.23072 -61.07916 42.07138 115.35881 113.65601 -36.82003 -7.56156 -13.33771 63.09297 42.50675 129.92897 -45.86837 -34.95312 -0.9732 35.46901 7.81303 -17.46788 -21.16079 -5.99106 -2.28248 -1.77248 49.15733 11.79656 -0.08766 -42.65088 -6.70528 2.83106 2.09819
